<svg id="svg" version="1.1" xmlns="http://www.w3.org/2000/svg" xmlns:xlink="http://www.w3.org/1999/xlink" width="210" height="116.66662" viewBox="0, 0, 400,222.22222222222223"><g id="svgg"><path id="path0" d="M197.833 30.264 C 196.137 31.140,193.475 32.517,191.917 33.324 C 190.358 34.132,187.358 35.676,185.250 36.755 C 183.142 37.835,180.005 39.456,178.280 40.359 C 176.555 41.262,175.074 42.000,174.989 42.000 C 174.901 42.000,174.833 42.941,174.833 44.170 L 174.833 46.340 175.542 45.980 C 175.931 45.781,177.262 45.079,178.500 44.418 C 179.737 43.758,181.725 42.708,182.917 42.086 C 184.108 41.463,185.608 40.673,186.250 40.331 C 186.892 39.988,188.954 38.903,190.833 37.918 C 192.713 36.933,194.475 35.996,194.750 35.835 C 195.769 35.240,200.815 32.667,200.964 32.667 C 201.049 32.667,201.748 33.031,202.518 33.477 C 203.287 33.922,205.079 34.961,206.500 35.785 C 207.921 36.609,209.796 37.696,210.667 38.200 C 211.537 38.704,214.125 40.204,216.417 41.534 C 223.846 45.846,226.151 47.167,226.243 47.167 C 226.293 47.167,226.333 46.268,226.333 45.170 L 226.333 43.173 225.637 42.818 C 225.254 42.623,223.416 41.572,221.552 40.482 C 219.688 39.392,218.125 38.500,218.078 38.500 C 218.031 38.500,217.683 38.304,217.304 38.065 C 216.431 37.514,212.652 35.333,212.569 35.333 C 212.536 35.333,211.737 34.873,210.796 34.311 C 209.854 33.748,208.221 32.800,207.167 32.203 C 206.112 31.607,204.383 30.608,203.323 29.983 C 202.264 29.358,201.289 28.808,201.157 28.760 C 201.025 28.712,199.529 29.389,197.833 30.264 M199.917 39.730 C 199.367 40.032,197.379 41.066,195.500 42.030 C 193.621 42.993,190.921 44.382,189.500 45.116 C 188.079 45.851,185.342 47.264,183.417 48.257 C 181.492 49.250,178.792 50.644,177.417 51.355 L 174.917 52.648 174.833 54.741 C 174.787 55.892,174.782 56.834,174.822 56.834 C 174.941 56.833,177.954 55.271,183.917 52.119 C 191.261 48.236,191.843 47.930,194.417 46.583 C 195.608 45.960,196.958 45.247,197.417 44.999 C 197.875 44.751,198.862 44.233,199.611 43.846 L 200.971 43.145 202.111 43.794 C 203.734 44.719,211.574 49.257,212.667 49.904 C 213.171 50.203,214.821 51.163,216.333 52.037 C 217.846 52.911,220.648 54.536,222.560 55.647 C 224.473 56.758,226.104 57.667,226.185 57.667 C 226.267 57.667,226.330 56.785,226.326 55.708 L 226.319 53.750 223.285 52.018 C 218.274 49.159,215.098 47.335,214.833 47.164 C 214.696 47.076,214.209 46.805,213.752 46.562 C 213.295 46.320,212.658 45.955,212.336 45.752 C 212.014 45.549,210.512 44.670,209.000 43.799 C 207.487 42.928,205.064 41.530,203.615 40.691 C 202.165 39.853,200.965 39.170,200.948 39.174 C 200.931 39.179,200.467 39.429,199.917 39.730 M199.083 50.553 C 198.350 50.946,196.100 52.117,194.083 53.156 C 192.067 54.195,188.879 55.837,187.000 56.805 C 185.121 57.773,182.383 59.188,180.917 59.949 C 179.450 60.711,177.406 61.765,176.375 62.292 L 174.500 63.250 174.500 65.292 C 174.500 66.415,174.557 67.333,174.627 67.333 C 174.698 67.333,175.016 67.196,175.336 67.028 C 175.655 66.860,176.967 66.174,178.250 65.504 C 180.909 64.115,185.726 61.572,187.333 60.708 C 187.929 60.388,189.429 59.597,190.667 58.952 C 191.904 58.306,194.662 56.853,196.795 55.724 L 200.674 53.669 202.295 54.602 C 203.187 55.115,204.517 55.889,205.250 56.322 C 205.983 56.756,207.371 57.566,208.333 58.122 C 209.296 58.679,212.408 60.483,215.250 62.131 C 218.092 63.779,221.654 65.842,223.167 66.714 L 225.917 68.300 225.964 66.452 C 226.023 64.159,226.110 64.343,224.553 63.463 C 223.836 63.057,221.713 61.836,219.833 60.749 C 217.954 59.662,216.117 58.606,215.750 58.403 C 215.383 58.199,212.908 56.782,210.250 55.252 C 207.592 53.723,205.004 52.243,204.500 51.964 C 203.996 51.684,203.502 51.392,203.403 51.314 C 203.029 51.020,200.780 49.833,200.602 49.836 C 200.500 49.838,199.817 50.160,199.083 50.553 M154.333 51.628 C 147.023 55.376,143.236 57.325,141.333 58.317 C 140.096 58.963,137.873 60.110,136.394 60.866 L 133.705 62.240 133.678 63.953 C 133.657 65.261,133.702 65.666,133.867 65.666 C 134.055 65.665,136.020 64.646,146.250 59.245 C 153.134 55.610,155.604 54.335,155.764 54.334 C 155.864 54.334,156.501 54.605,157.181 54.937 C 158.279 55.473,162.120 57.294,165.667 58.959 C 166.354 59.281,167.922 60.023,169.152 60.607 C 170.381 61.191,171.405 61.650,171.428 61.626 C 171.450 61.603,171.420 60.851,171.359 59.956 L 171.250 58.329 165.667 55.648 C 162.596 54.173,159.108 52.502,157.917 51.934 L 155.750 50.902 154.333 51.628 M241.750 52.094 C 240.375 52.761,238.425 53.701,237.417 54.181 C 230.439 57.508,228.746 58.356,228.718 58.541 C 228.700 58.656,228.658 59.399,228.624 60.193 C 228.551 61.877,228.265 61.841,231.090 60.503 C 232.095 60.027,235.460 58.436,238.568 56.967 L 244.220 54.297 244.818 54.578 C 245.673 54.979,252.303 58.457,258.250 61.624 C 263.071 64.191,265.955 65.667,266.152 65.667 C 266.293 65.667,266.342 65.180,266.322 63.954 L 266.295 62.241 263.606 60.862 C 262.127 60.103,259.942 58.975,258.750 58.355 C 257.558 57.735,254.408 56.117,251.750 54.758 C 249.092 53.400,246.317 51.971,245.583 51.584 L 244.250 50.880 241.750 52.094 M154.417 59.413 C 153.683 59.794,151.808 60.757,150.250 61.553 C 148.692 62.349,145.392 64.046,142.917 65.326 C 140.442 66.605,137.357 68.196,136.061 68.862 L 133.705 70.072 133.678 71.786 C 133.658 73.020,133.706 73.500,133.850 73.500 C 134.026 73.500,135.983 72.507,140.250 70.252 C 140.983 69.865,142.408 69.113,143.417 68.582 C 144.425 68.051,145.625 67.414,146.083 67.166 C 146.542 66.918,147.817 66.243,148.917 65.666 C 150.017 65.090,151.442 64.340,152.083 64.001 C 152.725 63.661,153.794 63.100,154.458 62.754 L 155.666 62.126 156.458 62.468 C 156.894 62.656,158.225 63.274,159.417 63.841 C 172.273 69.957,171.594 69.691,171.439 68.560 C 171.381 68.135,171.333 67.424,171.333 66.980 L 171.333 66.174 170.125 65.605 C 167.391 64.319,158.179 59.910,156.167 58.924 C 155.796 58.743,155.603 58.797,154.417 59.413 M243.667 59.005 C 243.529 59.089,241.467 60.087,239.083 61.225 C 236.700 62.362,233.700 63.797,232.417 64.412 C 231.133 65.028,229.770 65.681,229.386 65.862 L 228.690 66.193 228.636 67.697 C 228.607 68.524,228.621 69.257,228.667 69.326 C 228.737 69.431,234.369 66.831,242.174 63.089 C 244.563 61.944,243.821 61.763,249.667 64.914 C 250.721 65.483,252.558 66.456,253.750 67.078 C 254.942 67.699,256.442 68.489,257.083 68.832 C 262.348 71.647,265.939 73.500,266.129 73.500 C 266.244 73.500,266.308 72.894,266.308 71.792 L 266.307 70.083 263.112 68.439 C 261.355 67.534,258.792 66.212,257.417 65.501 C 256.042 64.790,253.342 63.400,251.417 62.412 C 249.492 61.424,247.143 60.215,246.198 59.725 C 244.463 58.825,244.122 58.728,243.667 59.005 M198.083 61.641 C 196.708 62.355,193.633 63.938,191.250 65.159 C 188.867 66.380,186.542 67.583,186.083 67.833 C 185.195 68.318,175.505 73.283,174.876 73.576 C 174.518 73.743,174.503 73.837,174.501 75.878 L 174.500 78.007 175.208 77.648 C 175.598 77.451,177.829 76.279,180.167 75.044 C 182.504 73.809,185.279 72.346,186.333 71.794 C 187.387 71.241,188.775 70.509,189.417 70.166 C 194.606 67.392,200.512 64.333,200.678 64.333 C 200.789 64.333,202.573 65.319,204.643 66.524 C 206.714 67.729,208.743 68.902,209.153 69.131 C 209.564 69.360,210.278 69.773,210.741 70.048 C 212.993 71.386,225.876 78.833,225.938 78.833 C 225.978 78.833,225.989 77.924,225.963 76.813 L 225.917 74.793 223.750 73.547 C 222.558 72.861,221.283 72.132,220.917 71.926 C 220.550 71.720,218.975 70.815,217.417 69.914 C 214.472 68.212,208.410 64.731,207.250 64.076 C 206.883 63.869,205.646 63.158,204.500 62.496 C 203.354 61.834,202.154 61.144,201.833 60.964 C 201.512 60.783,201.179 60.567,201.092 60.484 C 200.830 60.235,200.682 60.292,198.083 61.641 M154.144 67.697 C 153.286 68.151,150.371 69.656,147.667 71.041 C 144.962 72.425,141.887 74.014,140.833 74.571 C 139.779 75.128,137.744 76.181,136.312 76.912 L 133.706 78.241 133.679 79.856 C 133.662 80.821,133.720 81.513,133.824 81.577 C 133.975 81.671,136.219 80.568,140.083 78.501 C 142.971 76.956,154.327 70.995,155.015 70.663 L 155.779 70.293 161.098 72.800 C 164.023 74.178,167.534 75.839,168.899 76.490 C 170.264 77.142,171.409 77.647,171.442 77.613 C 171.476 77.580,171.446 76.822,171.377 75.929 L 171.250 74.306 167.583 72.556 C 165.567 71.593,163.392 70.557,162.750 70.253 C 162.108 69.949,160.261 69.064,158.644 68.286 L 155.705 66.872 154.144 67.697 M242.500 67.720 C 241.721 68.103,239.883 68.993,238.417 69.697 C 236.950 70.401,234.325 71.665,232.583 72.504 C 230.842 73.344,229.255 74.094,229.058 74.172 C 228.752 74.292,228.360 77.214,228.594 77.629 C 228.608 77.655,229.661 77.179,230.935 76.572 C 232.208 75.966,235.050 74.622,237.250 73.586 C 239.450 72.551,241.887 71.389,242.667 71.005 C 244.350 70.175,244.164 70.142,247.318 71.831 C 248.472 72.449,250.054 73.288,250.833 73.696 C 251.612 74.104,255.341 76.071,259.118 78.067 C 262.895 80.062,266.068 81.644,266.169 81.582 C 266.286 81.510,266.340 80.884,266.320 79.861 L 266.287 78.254 261.926 75.989 C 259.527 74.744,255.318 72.576,252.574 71.173 C 249.829 69.770,246.902 68.257,246.068 67.811 C 244.256 66.841,244.287 66.842,242.500 67.720 M197.907 72.231 C 196.446 72.986,193.450 74.528,191.250 75.658 C 189.050 76.787,186.425 78.142,185.417 78.667 C 183.096 79.877,178.268 82.361,176.042 83.492 L 174.333 84.360 174.333 86.319 C 174.333 87.396,174.383 88.327,174.443 88.388 C 174.542 88.486,175.505 88.008,180.083 85.586 C 180.817 85.198,182.242 84.447,183.250 83.916 C 185.537 82.713,187.432 81.713,189.208 80.771 C 194.355 78.044,200.506 74.833,200.585 74.833 C 200.665 74.833,208.752 79.487,213.750 82.409 C 214.575 82.891,216.713 84.130,218.500 85.162 C 220.287 86.195,222.624 87.555,223.693 88.186 C 226.185 89.657,226.020 89.716,225.964 87.376 L 225.917 85.419 223.500 84.025 C 222.171 83.258,219.321 81.616,217.167 80.376 C 215.012 79.135,212.012 77.404,210.500 76.528 C 208.987 75.653,207.262 74.662,206.667 74.327 C 206.071 73.992,204.646 73.174,203.500 72.509 C 202.354 71.845,201.225 71.201,200.990 71.079 C 200.592 70.873,200.385 70.950,197.907 72.231 M149.750 78.983 C 146.633 80.601,141.983 83.002,139.417 84.318 C 136.850 85.635,134.516 86.852,134.230 87.023 L 133.709 87.334 133.680 88.920 C 133.642 90.944,133.648 90.951,134.886 90.273 C 135.453 89.962,136.779 89.259,137.833 88.709 C 139.792 87.688,147.456 83.651,151.500 81.510 C 152.737 80.854,154.200 80.091,154.750 79.813 L 155.750 79.307 159.333 81.005 C 161.304 81.939,163.367 82.911,163.917 83.165 C 164.467 83.420,165.667 83.985,166.583 84.421 C 169.923 86.009,171.386 86.670,171.440 86.616 C 171.470 86.585,171.448 85.841,171.390 84.962 L 171.285 83.364 169.268 82.402 C 168.158 81.872,165.938 80.808,164.333 80.037 C 162.729 79.266,160.929 78.408,160.333 78.130 C 159.737 77.853,158.506 77.259,157.596 76.813 C 155.515 75.790,156.339 75.563,149.750 78.983 M242.417 76.813 C 241.500 77.258,240.000 77.979,239.083 78.417 C 238.167 78.855,236.292 79.752,234.917 80.411 C 233.542 81.069,231.580 82.005,230.557 82.489 L 228.698 83.371 228.633 84.977 C 228.597 85.861,228.579 86.603,228.592 86.627 C 228.624 86.687,230.006 86.065,232.583 84.830 C 233.775 84.259,236.063 83.175,237.667 82.421 C 239.271 81.668,241.423 80.655,242.449 80.172 L 244.315 79.292 247.866 81.174 C 251.175 82.927,253.647 84.227,259.925 87.513 C 261.305 88.235,263.255 89.272,264.259 89.818 C 266.409 90.987,266.374 91.003,266.304 88.896 L 266.250 87.250 263.500 85.833 C 261.987 85.053,258.612 83.315,256.000 81.970 C 253.387 80.624,249.713 78.731,247.833 77.762 C 243.832 75.700,244.481 75.813,242.417 76.813 M197.000 83.099 C 192.667 85.332,188.957 87.246,181.042 91.333 L 174.167 94.882 174.167 96.678 C 174.167 97.665,174.121 98.591,174.066 98.736 C 174.008 98.887,174.051 99.000,174.165 99.000 C 174.331 99.000,186.199 92.823,188.417 91.583 C 188.783 91.378,190.133 90.665,191.417 89.998 C 192.700 89.332,194.125 88.584,194.583 88.335 C 195.042 88.086,196.522 87.304,197.873 86.597 L 200.330 85.311 201.290 85.886 C 202.343 86.517,204.139 87.565,206.833 89.120 C 207.796 89.676,209.671 90.766,211.000 91.543 C 212.329 92.321,213.942 93.256,214.583 93.622 C 215.817 94.325,219.795 96.627,222.583 98.251 C 223.500 98.785,224.571 99.405,224.964 99.628 L 225.677 100.034 225.630 97.982 L 225.583 95.930 224.667 95.407 C 224.162 95.118,221.500 93.586,218.750 92.002 C 216.000 90.417,211.987 88.109,209.833 86.873 C 207.679 85.637,204.703 83.922,203.221 83.063 C 199.984 81.187,200.718 81.182,197.000 83.099 M154.917 85.052 C 154.550 85.261,152.525 86.320,150.417 87.405 C 148.308 88.490,145.758 89.808,144.750 90.333 C 142.016 91.758,137.312 94.179,135.375 95.158 L 133.667 96.022 133.667 97.668 C 133.667 99.604,133.710 99.653,134.865 99.029 C 135.352 98.766,136.800 98.005,138.083 97.336 C 139.367 96.668,141.354 95.617,142.500 95.000 C 143.646 94.384,145.558 93.372,146.750 92.753 C 147.942 92.133,150.414 90.835,152.243 89.869 C 154.073 88.902,155.648 88.113,155.743 88.116 C 155.839 88.119,159.343 89.744,163.531 91.727 C 171.993 95.735,171.584 95.580,171.440 94.708 C 171.383 94.365,171.336 93.648,171.335 93.117 L 171.333 92.150 168.375 90.724 C 166.748 89.940,163.998 88.626,162.265 87.804 C 160.531 86.982,158.468 85.987,157.681 85.593 C 155.741 84.623,155.690 84.613,154.917 85.052 M243.250 85.159 C 240.648 86.417,236.817 88.249,235.917 88.666 C 235.367 88.920,233.510 89.809,231.792 90.640 L 228.667 92.151 228.667 93.479 C 228.667 94.209,228.621 94.925,228.566 95.070 C 228.364 95.594,227.967 95.768,239.989 90.060 L 244.250 88.036 246.500 89.209 C 248.568 90.287,255.197 93.780,259.000 95.795 C 264.209 98.555,266.085 99.482,266.208 99.359 C 266.284 99.283,266.324 98.492,266.298 97.601 L 266.250 95.981 262.750 94.189 C 260.825 93.203,257.750 91.623,255.917 90.677 C 254.083 89.731,251.271 88.282,249.667 87.457 C 248.063 86.632,246.216 85.667,245.563 85.312 C 244.160 84.549,244.468 84.570,243.250 85.159 M198.824 92.718 C 198.050 93.119,195.767 94.294,193.750 95.330 C 191.733 96.366,189.258 97.642,188.250 98.167 C 187.242 98.691,184.917 99.890,183.083 100.831 C 177.953 103.464,174.255 105.375,174.199 105.421 C 174.135 105.474,174.066 109.667,174.130 109.667 C 174.155 109.667,174.792 109.338,175.546 108.937 C 177.277 108.016,188.030 102.335,190.250 101.168 C 194.305 99.039,195.887 98.202,197.917 97.116 C 200.611 95.673,199.692 95.520,204.250 98.171 C 204.525 98.331,206.362 99.396,208.333 100.537 C 210.304 101.679,214.977 104.387,218.718 106.556 C 222.458 108.725,225.552 110.500,225.593 110.500 C 225.633 110.500,225.667 109.606,225.667 108.513 L 225.667 106.526 222.625 104.781 C 218.936 102.665,210.392 97.748,204.833 94.542 C 202.588 93.247,200.633 92.143,200.491 92.088 C 200.346 92.033,199.608 92.312,198.824 92.718 M154.472 94.058 C 153.892 94.365,151.767 95.463,149.750 96.498 C 147.733 97.533,145.408 98.733,144.583 99.165 C 143.758 99.598,141.133 100.947,138.750 102.164 C 136.367 103.382,134.248 104.482,134.042 104.609 C 133.692 104.826,133.418 108.333,133.751 108.333 C 133.797 108.333,134.378 108.043,135.042 107.688 C 136.200 107.069,144.139 102.878,146.917 101.419 C 147.650 101.034,149.906 99.845,151.930 98.776 C 153.954 97.708,155.654 96.833,155.708 96.833 C 155.803 96.833,162.738 100.084,167.083 102.166 C 169.642 103.392,171.332 104.167,171.448 104.167 C 171.494 104.167,171.490 103.848,171.441 103.458 C 171.391 103.069,171.346 102.332,171.342 101.821 L 171.333 100.893 168.792 99.667 C 167.394 98.992,165.313 97.995,164.167 97.450 C 163.021 96.905,161.071 95.972,159.833 95.377 C 155.293 93.193,155.849 93.330,154.472 94.058 M243.792 93.597 C 243.738 93.651,241.194 94.891,238.139 96.353 C 235.083 97.814,231.709 99.431,230.640 99.945 L 228.697 100.879 228.633 102.481 C 228.597 103.362,228.582 104.107,228.600 104.136 C 228.618 104.164,229.510 103.771,230.583 103.261 C 231.656 102.751,232.555 102.333,232.581 102.333 C 232.607 102.333,234.118 101.615,235.939 100.737 C 237.760 99.859,240.390 98.613,241.784 97.968 L 244.319 96.795 248.034 98.758 C 250.078 99.837,252.463 101.092,253.333 101.548 C 257.783 103.873,258.764 104.391,258.917 104.500 C 259.008 104.565,260.322 105.261,261.835 106.046 C 263.349 106.832,264.924 107.667,265.335 107.902 C 265.747 108.137,266.140 108.330,266.208 108.331 C 266.433 108.335,266.354 104.890,266.125 104.711 C 266.010 104.622,263.892 103.515,261.417 102.251 C 258.942 100.987,256.242 99.600,255.417 99.167 C 254.592 98.734,252.417 97.609,250.583 96.666 C 248.750 95.723,246.631 94.625,245.874 94.226 C 244.576 93.541,244.016 93.373,243.792 93.597 M198.917 101.833 L 197.417 102.643 197.374 116.130 L 197.331 129.617 194.624 129.716 C 193.135 129.770,187.904 130.041,183.000 130.318 C 174.440 130.803,172.761 130.902,170.000 131.090 C 168.355 131.201,160.270 131.647,157.833 131.760 C 156.779 131.809,155.710 131.881,155.458 131.921 L 155.000 131.992 155.000 121.732 C 155.000 116.089,154.944 111.497,154.875 111.528 C 154.806 111.558,154.094 111.946,153.292 112.388 L 151.833 113.194 151.833 122.658 L 151.833 132.122 149.708 132.238 C 148.540 132.303,147.133 132.388,146.583 132.428 C 146.033 132.468,141.533 132.726,136.583 133.002 C 131.633 133.279,126.983 133.540,126.250 133.583 C 125.517 133.627,123.042 133.773,120.750 133.908 C 118.458 134.044,115.196 134.232,113.500 134.327 C 104.638 134.823,101.467 135.005,100.333 135.085 C 99.646 135.133,97.771 135.246,96.167 135.336 C 87.008 135.848,75.217 136.519,72.833 136.662 C 71.321 136.753,67.271 136.979,63.833 137.164 C 60.396 137.349,57.208 137.536,56.750 137.580 C 56.292 137.625,55.298 137.676,54.542 137.695 C 53.537 137.721,53.167 137.789,53.167 137.948 C 53.167 138.128,79.044 138.167,200.000 138.167 C 320.652 138.167,346.833 138.128,346.833 137.949 C 346.833 137.792,346.476 137.722,345.542 137.698 C 344.831 137.679,343.800 137.629,343.250 137.586 C 342.114 137.497,341.756 137.476,331.833 136.915 C 327.846 136.690,322.033 136.355,318.917 136.172 C 315.800 135.989,312.500 135.799,311.583 135.750 C 308.842 135.604,301.342 135.177,300.000 135.090 C 299.313 135.045,298.075 134.971,297.250 134.924 C 296.425 134.876,295.112 134.798,294.333 134.750 C 293.554 134.702,290.217 134.515,286.917 134.336 C 283.617 134.156,280.392 133.970,279.750 133.922 C 279.108 133.875,277.796 133.795,276.833 133.745 C 275.871 133.694,274.558 133.619,273.917 133.578 C 272.808 133.506,269.908 133.338,259.500 132.741 C 256.979 132.597,253.417 132.390,251.583 132.281 L 248.250 132.083 248.207 122.643 L 248.164 113.203 246.667 112.351 C 245.843 111.883,245.131 111.500,245.085 111.500 C 245.038 111.500,245.000 116.075,245.000 121.667 L 245.000 131.833 244.292 131.832 C 243.638 131.831,238.781 131.557,228.250 130.928 C 225.958 130.791,221.271 130.523,217.833 130.333 C 214.396 130.142,210.683 129.926,209.583 129.853 C 207.631 129.722,204.344 129.612,201.833 129.593 L 200.583 129.583 200.500 115.303 L 200.417 101.023 198.917 101.833 M150.917 104.932 C 148.350 106.259,144.052 108.475,141.366 109.856 C 138.679 111.236,135.867 112.687,135.116 113.080 L 133.750 113.795 133.702 115.343 C 133.675 116.195,133.693 116.995,133.741 117.121 C 133.827 117.345,134.605 116.977,138.917 114.667 C 139.558 114.324,140.871 113.630,141.833 113.127 C 142.796 112.623,144.483 111.740,145.583 111.165 C 146.683 110.589,148.596 109.577,149.833 108.917 C 151.071 108.256,152.908 107.285,153.917 106.759 L 155.750 105.803 160.478 108.068 C 163.078 109.314,165.232 110.333,165.263 110.333 C 165.295 110.333,166.430 110.864,167.785 111.512 C 169.141 112.160,170.496 112.807,170.798 112.950 C 171.518 113.292,171.511 113.308,171.391 111.481 L 171.288 109.902 166.185 107.455 C 158.176 103.612,155.815 102.499,155.695 102.509 C 155.634 102.514,153.483 103.604,150.917 104.932 M242.664 103.220 C 241.884 103.603,238.415 105.265,234.956 106.913 L 228.667 109.910 228.664 111.163 C 228.663 111.853,228.617 112.585,228.562 112.792 C 228.419 113.326,228.527 113.294,231.188 112.019 C 232.505 111.388,234.783 110.309,236.250 109.621 C 237.717 108.933,239.817 107.941,240.917 107.415 C 242.017 106.889,243.242 106.318,243.640 106.146 L 244.363 105.832 245.723 106.562 C 246.471 106.963,247.871 107.704,248.833 108.209 C 249.796 108.714,251.858 109.800,253.417 110.623 C 254.975 111.446,257.112 112.574,258.167 113.129 C 259.221 113.685,261.433 114.854,263.083 115.726 C 266.534 117.551,266.369 117.572,266.298 115.322 L 266.250 113.804 265.083 113.183 C 264.442 112.841,261.929 111.544,259.500 110.301 C 257.071 109.058,254.446 107.705,253.667 107.294 C 250.350 105.543,244.337 102.501,244.215 102.512 C 244.143 102.518,243.445 102.837,242.664 103.220 " stroke="none" fill="#b4945c" fill-rule="evenodd"></path><path id="path1" d="M317.167 145.591 C 294.678 149.682,290.316 182.007,310.917 191.911 C 325.210 198.783,341.607 190.161,344.343 174.333 C 347.281 157.347,333.376 142.642,317.167 145.591 M123.044 147.285 C 122.677 148.182,121.421 151.167,120.254 153.917 C 119.087 156.667,117.005 161.579,115.629 164.833 C 111.308 175.049,108.463 181.771,105.434 188.917 C 104.462 191.208,103.667 193.177,103.667 193.292 C 103.667 193.449,104.274 193.500,106.148 193.500 L 108.630 193.500 109.316 191.875 C 109.694 190.981,111.042 187.775,112.313 184.750 L 114.623 179.250 124.853 179.211 L 135.083 179.173 138.033 186.295 L 140.982 193.417 143.491 193.463 C 146.475 193.517,146.326 193.743,145.150 190.941 C 143.910 187.985,141.853 183.123,139.995 178.750 C 139.099 176.642,138.178 174.467,137.950 173.917 C 137.721 173.367,137.236 172.204,136.871 171.333 C 136.506 170.462,135.704 168.550,135.090 167.083 C 134.475 165.617,133.035 162.204,131.888 159.500 C 130.742 156.796,129.203 153.158,128.468 151.417 C 127.733 149.675,126.887 147.688,126.589 147.000 L 126.046 145.750 124.879 145.701 L 123.712 145.653 123.044 147.285 M169.374 145.804 C 169.208 145.910,169.174 150.795,169.208 169.677 L 169.250 193.417 171.624 193.463 L 173.999 193.509 174.041 174.687 L 174.083 155.865 176.667 159.048 C 178.088 160.798,179.850 162.958,180.583 163.847 C 181.317 164.736,182.671 166.391,183.592 167.523 C 184.514 168.656,189.716 175.040,195.151 181.708 L 205.034 193.833 206.100 193.833 L 207.167 193.833 207.167 169.917 L 207.167 146.000 204.751 146.000 L 202.335 146.000 202.292 164.603 L 202.250 183.206 196.979 176.728 C 192.005 170.615,186.027 163.280,183.752 160.500 C 183.190 159.813,181.876 158.200,180.833 156.917 C 177.346 152.626,176.917 152.098,174.365 148.975 C 172.968 147.265,171.709 145.821,171.566 145.766 C 171.189 145.622,169.619 145.649,169.374 145.804 M58.667 169.738 L 58.667 193.500 61.083 193.500 L 63.500 193.500 63.500 184.667 L 63.500 175.833 68.625 175.831 C 74.410 175.829,75.629 175.675,78.202 174.626 C 90.830 169.478,90.265 151.461,77.334 146.969 C 74.973 146.148,74.667 146.122,66.458 146.048 L 58.667 145.977 58.667 169.738 M236.500 169.761 L 236.500 193.521 245.292 193.459 C 256.240 193.382,257.991 193.107,262.652 190.734 C 279.338 182.239,279.121 156.640,262.294 148.513 C 257.827 146.356,255.324 146.003,244.458 146.001 L 236.500 146.000 236.500 169.761 M324.635 150.436 C 343.794 153.823,344.937 183.421,326.115 188.746 C 312.244 192.671,299.718 179.632,303.201 164.895 C 305.621 154.654,314.523 148.649,324.635 150.436 M74.750 151.069 C 80.790 152.815,83.697 158.584,81.643 164.747 C 80.021 169.614,76.348 171.333,67.571 171.333 L 63.500 171.333 63.500 160.987 L 63.500 150.641 68.625 150.711 C 72.842 150.768,73.927 150.832,74.750 151.069 M255.185 151.139 C 264.141 153.332,269.486 159.802,269.942 169.000 C 270.407 178.388,264.930 185.762,255.667 188.219 L 253.750 188.727 247.542 188.794 L 241.333 188.861 241.333 169.750 L 241.333 150.639 247.542 150.713 C 253.136 150.780,253.892 150.823,255.185 151.139 M129.022 164.793 C 131.210 170.042,133.000 174.374,133.000 174.418 C 133.000 174.463,129.325 174.500,124.833 174.500 C 120.342 174.500,116.667 174.444,116.667 174.375 C 116.667 174.306,117.049 173.349,117.517 172.250 C 117.985 171.150,119.682 167.137,121.287 163.333 C 122.893 159.529,124.363 156.049,124.553 155.599 C 124.744 155.149,124.932 154.887,124.972 155.016 C 125.012 155.145,126.835 159.545,129.022 164.793 " stroke="none" fill="#343444" fill-rule="evenodd"></path><path id="path2" d="M174.062 96.917 C 174.063 97.925,174.090 98.316,174.123 97.786 C 174.157 97.255,174.156 96.430,174.123 95.952 C 174.089 95.474,174.062 95.908,174.062 96.917 M174.062 107.500 C 174.062 108.462,174.089 108.856,174.123 108.375 C 174.157 107.894,174.157 107.106,174.123 106.625 C 174.089 106.144,174.062 106.537,174.062 107.500 " stroke="none" fill="#949850" fill-rule="evenodd"></path><path id="path3" d="M174.062 96.917 C 174.063 97.925,174.090 98.316,174.123 97.786 C 174.157 97.255,174.156 96.430,174.123 95.952 C 174.089 95.474,174.062 95.908,174.062 96.917 M174.062 107.500 C 174.062 108.462,174.089 108.856,174.123 108.375 C 174.157 107.894,174.157 107.106,174.123 106.625 C 174.089 106.144,174.062 106.537,174.062 107.500 " stroke="none" fill="#949850" fill-rule="evenodd"></path><path id="path4" d="M174.062 96.917 C 174.063 97.925,174.090 98.316,174.123 97.786 C 174.157 97.255,174.156 96.430,174.123 95.952 C 174.089 95.474,174.062 95.908,174.062 96.917 M174.062 107.500 C 174.062 108.462,174.089 108.856,174.123 108.375 C 174.157 107.894,174.157 107.106,174.123 106.625 C 174.089 106.144,174.062 106.537,174.062 107.500 " stroke="none" fill="#949850" fill-rule="evenodd"></path></g></svg>